:version 1.10
:name ASF
:units
  mass 1
  length 1
  angle deg
:documentation
  ASF file generated by Kaydara
:root
  axis xyz
  order  tx ty tz rx ry rz
  position 0 0 0
  orientation 0 0 0
:bonedata
  begin
    id 1
    name lfemurDummy
    direction 0.61522 -0.761478 0.204097
    length 5.68318
    axis 0 -0 0 xyz
  end
  begin
    id 2
    name lfemur
    direction 0.34202 -0.939693 -5.84747e-008
    length 16.9147
    axis 0 -0 20 xyz
    dof rx ry rz
    limits( -inf , inf )
( -inf , inf )
( -inf , inf )

  end
  begin
    id 3
    name ltibia
    direction 0.34202 -0.939693 1.20839e-009
    length 18.0532
    axis 0 -0 20 xyz
    dof rz ry rx
    limits( -inf , inf )
( -inf , inf )
( -inf , inf )

  end
  begin
    id 4
    name lfoot
    direction 0.0841971 -0.23133 0.969225
    length 5.23822
    axis -90 7.62852e-016 20 xyz
    dof ry rx rz
    limits( -inf , inf )
( -inf , inf )
( -inf , inf )

  end
  begin
    id 5
    name ltoes
    direction 0 0 0
    length 0
    axis 0 0 0 xyz
    dof rz ry rx
    limits( -inf , inf )
( -inf , inf )
( -inf , inf )

  end
  begin
    id 6
    name rfemurDummy
    direction -0.625247 -0.75382 0.202044
    length 5.74091
    axis 0 -0 0 xyz
  end
  begin
    id 7
    name rfemur
    direction -0.34202 -0.939693 -1.47013e-008
    length 16.4922
    axis 0 -0 -20 xyz
    dof rx ry rz
    limits( -inf , inf )
( -inf , inf )
( -inf , inf )

  end
  begin
    id 8
    name rtibia
    direction -0.34202 -0.939693 -7.74345e-010
    length 18.2421
    axis 0 -0 -20 xyz
    dof rz ry rx
    limits( -inf , inf )
( -inf , inf )
( -inf , inf )

  end
  begin
    id 9
    name rfoot
    direction -0.124331 -0.341598 0.931586
    length 5.45787
    axis -90 -7.62852e-016 -20 xyz
    dof ry rx rz
    limits( -inf , inf )
( -inf , inf )
( -inf , inf )

  end
  begin
    id 10
    name rtoes
    direction 0 0 0
    length 0
    axis 0 0 0 xyz
    dof rz ry rx
    limits( -inf , inf )
( -inf , inf )
( -inf , inf )

  end
  begin
    id 11
    name lowerbackDummy
    direction 0 0 0
    length 0
    axis 0 -0 0 xyz
  end
  begin
    id 12
    name lowerback
    direction -0.0218484 0.994884 -0.0986304
    length 4.45607
    axis 0 -0 0 xyz
    dof rx ry rz
    limits( -inf , inf )
( -inf , inf )
( -inf , inf )

  end
  begin
    id 13
    name upperback
    direction -0.00973057 0.999717 -0.0217111
    length 4.47449
    axis 0 -0 0 xyz
    dof rx ry rz
    limits( -inf , inf )
( -inf , inf )
( -inf , inf )

  end
  begin
    id 14
    name thorax
    direction -0.000928171 0.999699 0.0245198
    length 4.50973
    axis 0 -0 0 xyz
    dof rx ry rz
    limits( -inf , inf )
( -inf , inf )
( -inf , inf )

  end
  begin
    id 15
    name rclavicle
    direction -0.9009 0.425937 -0.0834055
    length 7.28587
    axis 0 -0 0 xyz
    dof rx ry rz
    limits( -inf , inf )
( -inf , inf )
( -inf , inf )

  end
  begin
    id 16
    name rhumerus
    direction -1 -2.23604e-007 -1.42637e-007
    length 13.5704
    axis 180 30 90 xyz
    dof rx ry rz
    limits( -inf , inf )
( -inf , inf )
( -inf , inf )

  end
  begin
    id 17
    name rradius
    direction -1 5.68281e-008 -4.4952e-007
    length 8.06782
    axis 180 30 90 xyz
    dof rz ry rx
    limits( -inf , inf )
( -inf , inf )
( -inf , inf )

  end
  begin
    id 18
    name rwrist
    direction -1 1.51393e-007 1.38143e-007
    length 4.03391
    axis -90 -90 0 xyz
    dof rz rx ry
    limits( -inf , inf )
( -inf , inf )
( -inf , inf )

  end
  begin
    id 19
    name rthumb
    direction 0 0 0
    length 0
    axis 0 0 0 xyz
    dof ry rx rz
    limits( -inf , inf )
( -inf , inf )
( -inf , inf )

  end
  begin
    id 20
    name rhand
    direction -1 -3.34077e-007 -5.59631e-007
    length 1.29744
    axis -90 -90 0 xyz
    dof ry rx rz
    limits( -inf , inf )
( -inf , inf )
( -inf , inf )

  end
  begin
    id 21
    name rfingers
    direction 0 0 0
    length 0
    axis 0 0 0 xyz
    dof rz ry rx
    limits( -inf , inf )
( -inf , inf )
( -inf , inf )

  end
  begin
    id 22
    name lclavicle
    direction 0.940017 0.332249 -0.0773232
    length 8.29589
    axis 0 -0 0 xyz
    dof rx ry rz
    limits( -inf , inf )
( -inf , inf )
( -inf , inf )

  end
  begin
    id 23
    name lhumerus
    direction 1 7.41158e-008 -1.44768e-008
    length 12.0042
    axis 180 -30 -90 xyz
    dof rx ry rz
    limits( -inf , inf )
( -inf , inf )
( -inf , inf )

  end
  begin
    id 24
    name lradius
    direction 1 -1.32972e-007 3.10821e-007
    length 8.1902
    axis 180 -30 -90 xyz
    dof rz ry rx
    limits( -inf , inf )
( -inf , inf )
( -inf , inf )

  end
  begin
    id 25
    name lwrist
    direction 1 3.08957e-007 4.01394e-007
    length 4.09509
    axis -90 90 0 xyz
    dof rz rx ry
    limits( -inf , inf )
( -inf , inf )
( -inf , inf )

  end
  begin
    id 26
    name lthumb
    direction 0 0 0
    length 0
    axis 0 0 0 xyz
    dof ry rx rz
    limits( -inf , inf )
( -inf , inf )
( -inf , inf )

  end
  begin
    id 27
    name lhand
    direction 1 -1.64125e-007 -6.99514e-007
    length 1.37229
    axis -90 90 0 xyz
    dof ry rx rz
    limits( -inf , inf )
( -inf , inf )
( -inf , inf )

  end
  begin
    id 28
    name lfingers
    direction 0 0 0
    length 0
    axis 0 0 0 xyz
    dof rz ry rx
    limits( -inf , inf )
( -inf , inf )
( -inf , inf )

  end
  begin
    id 29
    name lowerneck
    direction -0.030798 0.998024 0.0547665
    length 3.93918
    axis 0 -0 0 xyz
    dof rx ry rz
    limits( -inf , inf )
( -inf , inf )
( -inf , inf )

  end
  begin
    id 30
    name upperneck
    direction 0.0531588 0.996611 -0.0627736
    length 3.95491
    axis 0 -0 0 xyz
    dof rx ry rz
    limits( -inf , inf )
( -inf , inf )
( -inf , inf )

  end
  begin
    id 31
    name head
    direction 0 0 0
    length 0
    axis 0 0 0 xyz
    dof rx ry rz
    limits( -inf , inf )
( -inf , inf )
( -inf , inf )

  end
:hierarchy
  begin
    root lfemurDummy rfemurDummy lowerbackDummy
    lfemurDummy lfemur
    lfemur ltibia
    ltibia lfoot
    lfoot ltoes
    rfemurDummy rfemur
    rfemur rtibia
    rtibia rfoot
    rfoot rtoes
    lowerbackDummy lowerback
    lowerback upperback
    upperback thorax
    thorax rclavicle lclavicle lowerneck
    rclavicle rhumerus
    rhumerus rradius
    rradius rwrist
    rwrist rthumb rhand
    rhand rfingers
    lclavicle lhumerus
    lhumerus lradius
    lradius lwrist
    lwrist lthumb lhand
    lhand lfingers
    lowerneck upperneck
    upperneck head
  end

:SAMPLES-PER-SECOND 30
:FULLY-SPECIFIED
:DEGREES
24
root  15.10651055 37.95644505 -4.409266645 -7.53302002 -76.57109833 11.03399658
lowerback  13.84790039 0.2908079922 -4.60213995
upperback  5.117909908 -0.4051449895 0.2628979981
thorax  -2.332020044 -0.3216539919 2.940040112
lowerneck  0.4165779948 5.999529839 -3.143719912
upperneck  8.32901001 7.839540005 2.05272007
head  2.345079899 3.816550016 1.315840006
lclavicle  0 -9.442270133e-015 7.951389973e-016
lhumerus  16.52680016 -13.30070019 76.78399658
lradius  2.276083628e-031 -2.699682825e-031 130.1340027
lwrist  -7.062250077e-031 -0 1.249480009
lhand  -1.496451383e-031 -27.76390076 20.11240005
lfingers  90 7.125020027 -90
lthumb  89.89689403 5.08795885 91.16245106
rclavicle  0 -9.442270133e-015 7.951389973e-016
rhumerus  20.65710068 24.67939949 -75.72599792
rradius  -2.182417712e-031 2.775949741e-031 128.173996
rwrist  1.059337512e-030 -3.531125038e-031 -2.789220095
rhand  -7.920061211e-032 -33.2840004 9.303460121
rfingers  -90 -7.125020027 -90
rthumb  -92.93752616 -24.25625642 -97.11982154
rfemur  -38.40840149 8.689660072 -4.142179966
rtibia  -0 0 61.60559845
rfoot  -5.015010071e-032 -8.045820236 -0.6194530129
rtoes  5.373923086 19.29304026 -105.8922705
lfemur  -3.795190096 -10.48349953 -11.6406002
ltibia  -0 0 45.2983017
lfoot  -0 -23.47529984 -7.717569828
ltoes  -4.250644065 -19.5611806 -102.515957
25
root  15.05799932 37.77666768 -4.463110946 -8.810974121 -76.37229919 12.02502441
lowerback  14.02340031 0.06500960141 -5.024859905
upperback  4.88616991 -0.7601040006 0.3825210035
thorax  -2.630209923 -0.4854489863 3.364680052
lowerneck  0.7994070053 6.087419987 -3.093300104
upperneck  7.756849766 7.955550194 1.98150003
head  2.090140104 3.881409883 1.253360033
lclavicle  0 -9.442270133e-015 7.951389973e-016
lhumerus  16.15279961 -13.41160011 76.6486969
lradius  2.296327039e-031 -2.682485073e-031 130.5650024
lwrist  -1.059337512e-030 -0 -0.399217993
lhand  -1.496451383e-031 -27.76390076 20.11240005
lfingers  90 7.125020027 -90
lthumb  89.89689403 5.08795885 91.16245106
rclavicle  0 -9.442270133e-015 7.951389973e-016
rhumerus  19.27230072 25.51670074 -75.69560242
rradius  -2.208338963e-031 2.755373489e-031 128.7109985
rwrist  7.062250077e-031 -3.531125038e-031 -2.165179968
rhand  -7.920061211e-032 -33.2840004 9.303460121
rfingers  -90 -7.125020027 -90
rthumb  -92.93752616 -24.25625642 -97.11982154
rfemur  -38.00450134 7.959799767 -4.149400234
rtibia  -0 0 62.28290176
rfoot  -4.477265052e-032 -9.650460243 0.2326290011
rtoes  5.373923086 19.29304026 -105.8922705
lfemur  -3.192909956 -10.12899971 -12.16259956
ltibia  -0 0 45.28509903
lfoot  4.884355904e-032 -25.35359955 -4.796830177
ltoes  -4.250644065 -19.5611806 -102.515957
26
root  14.97308926 37.62177895 -4.512066728 -10.76501465 -76.41320038 13.57897949
lowerback  14.00720024 -0.001406769967 -5.420110226
upperback  4.879759789 -0.9013800025 0.3589729965
thorax  -2.606899977 -0.5583050251 3.585599899
lowerneck  0.9497500062 6.123600006 -2.860440016
upperneck  7.331309795 8.003199577 1.993989944
head  1.931990027 3.917890072 1.200780034
lclavicle  0 -9.442270133e-015 7.951389973e-016
lhumerus  15.98060036 -13.68379974 76.47910309
lradius  2.312716937e-031 -2.668367367e-031 130.9160004
lwrist  -7.062250077e-031 -3.531125038e-031 -2.164839983
lhand  -1.496451383e-031 -27.76390076 20.11240005
lfingers  90 7.125020027 -90
lthumb  89.89689403 5.08795885 91.16245106
rclavicle  0 -9.442270133e-015 7.951389973e-016
rhumerus  17.77179909 26.18169975 -75.76229858
rradius  -2.236069788e-031 2.732917112e-031 129.2899933
rwrist  7.062250077e-031 -3.531125038e-031 -1.152089953
rhand  -7.920061211e-032 -33.2840004 9.303460121
rfingers  -90 -7.125020027 -90
rthumb  -92.93752616 -24.25625642 -97.11982154
rfemur  -37.40119934 7.584020138 -4.298820019
rtibia  -0 0 62.50669861
rfoot  -5.629167185e-032 -11.43739986 0.8225989938
rtoes  5.373923086 19.29304026 -105.8922705
lfemur  -2.627300024 -9.606679916 -12.88049984
ltibia  -0 0 45.71670151
lfoot  4.939910161e-032 -26.68110085 -1.176450014
ltoes  -4.250644065 -19.5611806 -102.515957
27
root  14.9097773 37.50111137 -4.6218001 -11.51300049 -76.41359711 14.28100586
lowerback  13.8210001 -0.3091709912 -6.092919827
upperback  4.916490078 -1.372679949 0.6608800292
thorax  -2.390980005 -0.8061429858 4.352660179
lowerneck  0.5200049877 6.415659904 -3.487570047
upperneck  7.092669964 8.419610023 2.109400034
head  1.889389992 4.119259834 1.352890015
lclavicle  0 -9.442270133e-015 7.951389973e-016
lhumerus  15.68939972 -12.61190033 76.5460968
lradius  2.332307192e-031 -2.651261435e-031 131.3379974
lwrist  -7.062250077e-031 -3.531125038e-031 -2.962759972
lhand  -1.496451383e-031 -27.76390076 20.11240005
lfingers  90 7.125020027 -90
lthumb  89.89689403 5.08795885 91.16245106
rclavicle  0 -9.442270133e-015 7.951389973e-016
rhumerus  16.73259926 27.73450089 -75.63529968
rradius  -2.260354493e-031 2.712865939e-031 129.8009949
rwrist  7.062250077e-031 -3.531125038e-031 -0.007796459831
rhand  -7.920061211e-032 -33.2840004 9.303460121
rfingers  -90 -7.125020027 -90
rthumb  -92.93752616 -24.25625642 -97.11982154
rfemur  -37.00289917 7.339630127 -4.189970016
rtibia  -0 0 62.30849838
rfoot  -5.094308179e-032 -12.90450001 0.6268849969
rtoes  5.373923086 19.29304026 -105.8922705
lfemur  -2.823750019 -8.716719627 -12.91810036
ltibia  -0 0 46.47510147
lfoot  5.275245736e-032 -27.25020027 0.1227829978
ltoes  -4.250644065 -19.5611806 -102.515957
28
root  14.82597712 37.46044429 -4.714266709 -9.697021484 -76.57219696 12.56402588
lowerback  13.31519985 -0.5079240203 -5.723859787
upperback  4.966159821 -1.546900034 0.7817339897
thorax  -2.0536201 -0.9021430016 4.281139851
lowerneck  0.1831140071 6.449210167 -3.342240095
upperneck  6.910470009 8.476750374 2.20520997
head  1.889430046 4.159369946 1.368510008
lclavicle  0 -9.442270133e-015 7.951389973e-016
lhumerus  15.45759964 -12.13840008 76.32900238
lradius  2.352690425e-031 -2.633190422e-031 131.7799988
lwrist  -1.059337512e-030 -3.531125038e-031 -3.263720036
lhand  -1.496451383e-031 -27.76390076 20.11240005
lfingers  90 7.125020027 -90
lthumb  89.89689403 5.08795885 91.16245106
rclavicle  0 -9.442270133e-015 7.951389973e-016
rhumerus  15.03120041 28.63290024 -76.01850128
rradius  -2.290234539e-031 2.68768856e-031 130.4349976
rwrist  3.531125038e-031 -0 1.026200056
rhand  -7.920061211e-032 -33.2840004 9.303460121
rfingers  -90 -7.125020027 -90
rthumb  -92.93752616 -24.25625642 -97.11982154
rfemur  -36.49000168 7.344180107 -3.455699921
rtibia  -0 0 61.64659882
rfoot  -4.837402513e-032 -14.19139957 0.2478059977
rtoes  5.373923086 19.29304026 -105.8922705
lfemur  -3.40151 -7.832349777 -12.1935997
ltibia  -0 0 47.44520187
lfoot  4.95483023e-032 -27.0223999 -0.2731159925
ltoes  -4.250644065 -19.5611806 -102.515957
29
root  14.73057814 37.47889001 -4.773644575 -7.030029297 -76.70999908 9.74597168
lowerback  13.08549976 -0.6514359713 -4.809410095
upperback  4.999849796 -1.604570031 0.9017350078
thorax  -1.914899945 -0.9283480048 3.889960051
lowerneck  -0.01121389959 6.386650085 -3.043750048
upperneck  6.943540096 8.392160416 2.265409946
head  1.94619 4.127079964 1.347409964
lclavicle  0 -9.442270133e-015 7.951389973e-016
lhumerus  14.63080025 -12.35599995 76.24310303
lradius  2.380317901e-031 -2.608242843e-031 132.3840027
lwrist  -7.062250077e-031 -3.531125038e-031 -4.107520103
lhand  -1.496451383e-031 -27.76390076 20.11240005
lfingers  90 7.125020027 -90
lthumb  89.89689403 5.08795885 91.16245106
rclavicle  0 -9.442270133e-015 7.951389973e-016
rhumerus  12.6821003 29.20350075 -76.57900238
rradius  -2.326795497e-031 2.656099913e-031 131.2189941
rwrist  1.059337512e-030 -0 1.178760052
rhand  -7.920061211e-032 -33.2840004 9.303460121
rfingers  -90 -7.125020027 -90
rthumb  -92.93752616 -24.25625642 -97.11982154
rfemur  -35.4510994 7.511459827 -2.476510048
rtibia  -0 0 60.60229874
rfoot  -4.865815922e-032 -15.45909977 0.3173750043
rtoes  5.373923086 19.29304026 -105.8922705
lfemur  -3.845580101 -7.24285984 -11.22290039
ltibia  -0 0 48.55730057
lfoot  5.528546691e-032 -26.07979965 -0.6306160092
ltoes  -4.250644065 -19.5611806 -102.515957
30
root  14.61851165 37.53444341 -4.797222107 -6.140991211 -77.00009918 8.50402832
lowerback  13.30259991 -0.714722991 -4.1010499
upperback  4.860889912 -1.607030034 0.9572169781
thorax  -2.199229956 -0.9124150276 3.556610107
lowerneck  0.1280139983 6.321219921 -3.125390053
upperneck  7.106100082 8.285059929 2.468859911
head  1.965829968 4.072879791 1.422639966
lclavicle  0 -9.442270133e-015 7.951389973e-016
lhumerus  12.80860043 -12.70059967 76.56189728
lradius  2.404839074e-031 -2.585651381e-031 132.9250031
lwrist  0 -3.531125038e-031 -5.318160057
lhand  -1.496451383e-031 -27.76390076 20.11240005
lfingers  90 7.125020027 -90
lthumb  89.89689403 5.08795885 91.16245106
rclavicle  0 -9.442270133e-015 7.951389973e-016
rhumerus  9.538880348 30.15780067 -77.36640167
rradius  -2.342285773e-031 2.642449885e-031 131.5540009
rwrist  7.062250077e-031 -3.531125038e-031 2.198869944
rhand  -7.920061211e-032 -33.2840004 9.303460121
rfingers  -90 -7.125020027 -90
rthumb  -92.93752616 -24.25625642 -97.11982154
rfemur  -34.11389923 7.742040157 -1.951390028
rtibia  -0 0 59.22489929
rfoot  -5.74949136e-032 -16.33580017 0.8948360085
rtoes  5.373923086 19.29304026 -105.8922705
lfemur  -3.999769926 -6.851749897 -10.73340034
ltibia  -0 0 49.69729996
lfoot  5.468582825e-032 -24.76530075 -0.7320709825
ltoes  -4.250644065 -19.5611806 -102.515957
31
root  14.49104519 37.63466782 -4.798066522 -4.916992188 -77.53970337 6.989990234
lowerback  13.07769966 -0.8296830058 -3.169579983
upperback  4.890480042 -1.636819959 0.8994240165
thorax  -2.076129913 -0.9231209755 2.966239929
lowerneck  0.2475849986 6.325069904 -3.200429916
upperneck  7.378290176 8.261969566 2.752079964
head  2.019500017 4.060609818 1.527150035
lclavicle  0 -9.442270133e-015 7.951389973e-016
lhumerus  10.73770046 -12.72340012 76.81009674
lradius  2.420095531e-031 -2.571377385e-031 133.2640076
lwrist  0 -3.531125038e-031 -6.556690216
lhand  -1.496451383e-031 -27.76390076 20.11240005
lfingers  90 7.125020027 -90
lthumb  89.89689403 5.08795885 91.16245106
rclavicle  0 -9.442270133e-015 7.951389973e-016
rhumerus  6.203619957 31.65740013 -78.56539917
rradius  -2.316300683e-031 2.665257058e-031 130.9929962
rwrist  3.531125038e-031 -0 5.673520088
rhand  -7.920061211e-032 -33.2840004 9.303460121
rfingers  -90 -7.125020027 -90
rthumb  -92.93752616 -24.25625642 -97.11982154
rfemur  -32.84429932 8.030059814 -1.400279999
rtibia  -0 0 57.56850052
rfoot  -4.606025173e-032 -16.60659981 1.428369999
rtoes  5.373923086 19.29304026 -105.8922705
lfemur  -4.169650078 -6.586780071 -10.1541996
ltibia  -0 0 50.78179932
lfoot  4.798141081e-032 -23.0855999 -1.839249969
ltoes  -4.250644065 -19.5611806 -102.515957
